<svg width="800" height="600" xmlns="http://www.w3.org/2000/svg">
  <defs>
    <linearGradient id="grad1" x1="0%" y1="0%" x2="100%" y2="100%">
      <stop offset="0%" style="stop-color:#f8fafc;stop-opacity:1" />
      <stop offset="100%" style="stop-color:#f1f5f9;stop-opacity:1" />
    </linearGradient>
    <pattern id="grid" width="40" height="40" patternUnits="userSpaceOnUse">
      <path d="M 40 0 L 0 0 0 40" fill="none" stroke="#e2e8f0" stroke-width="1"/>
    </pattern>
  </defs>
  <rect width="800" height="600" fill="url(#grad1)" />
  <rect width="800" height="600" fill="url(#grid)" />
  
  <!-- Abstract chart/data shapes -->
  <path d="M 100 450 L 250 300 L 400 350 L 550 150 L 700 200" fill="none" stroke="#4f46e5" stroke-width="6" stroke-linecap="round" stroke-linejoin="round"/>
  <circle cx="100" cy="450" r="6" fill="#4338ca" />
  <circle cx="250" cy="300" r="6" fill="#4338ca" />
  <circle cx="400" cy="350" r="6" fill="#4338ca" />
  <circle cx="550" cy="150" r="6" fill="#4338ca" />
  <circle cx="700" cy="200" r="6" fill="#4338ca" />
  
  <rect x="220" y="300" width="60" height="200" fill="#6366f1" opacity="0.15" rx="4" />
  <rect x="370" y="350" width="60" height="150" fill="#6366f1" opacity="0.15" rx="4" />
  <rect x="520" y="150" width="60" height="350" fill="#6366f1" opacity="0.15" rx="4" />
  <rect x="670" y="200" width="60" height="300" fill="#6366f1" opacity="0.15" rx="4" />
</svg>
